<svg xmlns="http://www.w3.org/2000/svg" xmlns:xlink="http://www.w3.org/1999/xlink" width="500" zoomAndPan="magnify" viewBox="0 0 375 374.999991" height="500" preserveAspectRatio="xMidYMid meet" version="1.0"><defs><g/><clipPath id="fbb9aadede"><path d="M 0 0 L 187.5 0 L 187.5 187.5 L 0 187.5 Z M 0 0 " clip-rule="nonzero"/></clipPath><clipPath id="5d65631c58"><path d="M 187.5 0 L 375 0 L 375 187.5 L 187.5 187.5 Z M 187.5 0 " clip-rule="nonzero"/></clipPath><clipPath id="c827947047"><path d="M 0 187.5 L 187.5 187.5 L 187.5 375 L 0 375 Z M 0 187.5 " clip-rule="nonzero"/></clipPath><clipPath id="060ca8e8ef"><path d="M 187.5 187.5 L 375 187.5 L 375 375 L 187.5 375 Z M 187.5 187.5 " clip-rule="nonzero"/></clipPath><clipPath id="b871cbef3e"><path d="M 47 234.164062 L 135 234.164062 L 135 308 L 47 308 Z M 47 234.164062 " clip-rule="nonzero"/></clipPath><clipPath id="f843364b76"><path d="M 67.695312 282 L 136 282 L 136 323.652344 L 67.695312 323.652344 Z M 67.695312 282 " clip-rule="nonzero"/></clipPath><clipPath id="d42b4a55a2"><path d="M 16.695312 240 L 166.695312 240 L 166.695312 323 L 16.695312 323 Z M 16.695312 240 " clip-rule="nonzero"/></clipPath><clipPath id="2c64abe343"><path d="M 224 25.859375 L 339 25.859375 L 339 161.609375 L 224 161.609375 Z M 224 25.859375 " clip-rule="nonzero"/></clipPath><clipPath id="78ff57fe81"><path d="M 80.582031 156.085938 L 106.914062 156.085938 L 106.914062 161.636719 L 80.582031 161.636719 Z M 80.582031 156.085938 " clip-rule="nonzero"/></clipPath><clipPath id="301d8048c7"><path d="M 91 11.640625 L 96 11.640625 L 96 39 L 91 39 Z M 91 11.640625 " clip-rule="nonzero"/></clipPath><clipPath id="fc40e114c4"><path d="M 141.046875 83.359375 L 167.625 83.359375 L 167.625 87.679688 L 141.046875 87.679688 Z M 141.046875 83.359375 " clip-rule="nonzero"/></clipPath><clipPath id="fb96b08170"><path d="M 19.875 83 L 47 83 L 47 88 L 19.875 88 Z M 19.875 83 " clip-rule="nonzero"/></clipPath></defs><rect x="-37.5" width="450" fill="#ffffff" y="-37.499999" height="449.999989" fill-opacity="1"/><rect x="-37.5" width="450" fill="#ffffff" y="-37.499999" height="449.999989" fill-opacity="1"/><g clip-path="url(#fbb9aadede)"><path fill="#ffde59" d="M 0 0 L 187.5 0 L 187.5 187.5 L 0 187.5 Z M 0 0 " fill-opacity="1" fill-rule="nonzero"/></g><g clip-path="url(#5d65631c58)"><path fill="#ff914d" d="M 187.5 0 L 375 0 L 375 187.5 L 187.5 187.5 Z M 187.5 0 " fill-opacity="1" fill-rule="nonzero"/></g><g clip-path="url(#c827947047)"><path fill="#26528d" d="M 0 187.5 L 187.5 187.5 L 187.5 375 L 0 375 Z M 0 187.5 " fill-opacity="1" fill-rule="nonzero"/></g><g clip-path="url(#060ca8e8ef)"><path fill="#7ed957" d="M 187.5 187.5 L 375 187.5 L 375 375 L 187.5 375 Z M 187.5 187.5 " fill-opacity="1" fill-rule="nonzero"/></g><g clip-path="url(#b871cbef3e)"><path fill="#ffffff" d="M 59.703125 306.449219 C 53.445312 299.101562 49.636719 289.597656 49.636719 279.203125 C 49.636719 256.011719 68.503906 237.144531 91.695312 237.144531 C 111.617188 237.144531 128.316406 251.089844 132.628906 269.722656 C 133.34375 269.242188 134.046875 268.773438 134.726562 268.304688 C 129.851562 249.0625 112.425781 234.753906 91.695312 234.753906 C 67.179688 234.753906 47.246094 254.699219 47.246094 279.203125 C 47.246094 289.855469 51.019531 299.640625 57.289062 307.304688 C 58.085938 307.035156 58.894531 306.742188 59.703125 306.449219 " fill-opacity="1" fill-rule="nonzero"/></g><g clip-path="url(#f843364b76)"><path fill="#ffffff" d="M 91.695312 321.261719 C 84.078125 321.261719 76.953125 319.199219 70.777344 315.648438 C 69.828125 316.023438 68.902344 316.375 67.964844 316.726562 C 74.832031 321.085938 82.964844 323.652344 91.695312 323.652344 C 115.097656 323.652344 134.292969 305.453125 135.980469 282.472656 C 135.136719 283.011719 134.304688 283.550781 133.4375 284.089844 C 131.011719 304.984375 113.222656 321.261719 91.695312 321.261719 " fill-opacity="1" fill-rule="nonzero"/></g><g clip-path="url(#d42b4a55a2)"><path fill="#ffffff" d="M 166.144531 243.847656 C 162.863281 237.261719 146.398438 240.554688 133.179688 244.46875 C 132.394531 244.703125 131.949219 245.523438 132.183594 246.296875 C 132.417969 247.082031 133.226562 247.527344 134.011719 247.292969 C 153.664062 241.457031 162.183594 242.5 163.519531 245.171875 C 164.902344 247.914062 160.414062 255.578125 143.234375 268.152344 C 131.351562 276.882812 115.484375 286.339844 98.5625 294.800781 C 82.214844 302.980469 66.300781 309.589844 52.554688 313.925781 C 30.722656 320.851562 21.3125 319.9375 19.871094 317.054688 C 18.464844 314.242188 23.152344 306.367188 41.035156 293.429688 C 41.691406 292.960938 41.84375 292.035156 41.363281 291.378906 C 40.882812 290.722656 39.96875 290.570312 39.3125 291.050781 C 27.335938 299.710938 13.789062 311.488281 17.246094 318.367188 C 18.605469 321.097656 22.179688 322.164062 26.902344 322.164062 C 34.308594 322.164062 44.539062 319.550781 53.445312 316.726562 C 67.332031 312.355469 83.386719 305.675781 99.875 297.4375 C 116.9375 288.90625 132.957031 279.34375 144.980469 270.53125 C 156.5 262.09375 169.542969 250.609375 166.144531 243.847656 " fill-opacity="1" fill-rule="nonzero"/></g><path fill="#0f641b" d="M 275.785156 321.449219 C 272.375 313.59375 267.304688 298.300781 272.285156 281.96875 C 280.457031 255.175781 312.515625 235.964844 351.097656 238.453125 C 356.222656 271.140625 343.59375 301.761719 319.804688 315.421875 C 303.78125 324.625 287.179688 323.554688 279.316406 322.457031 C 287.367188 316.355469 296.402344 308.515625 305.4375 298.589844 C 319.378906 283.273438 328.683594 268.074219 334.84375 255.945312 C 325.996094 268.289062 315.363281 281.621094 302.65625 295.246094 C 293.492188 305.074219 284.4375 313.777344 275.785156 321.449219 Z M 275.785156 321.449219 " fill-opacity="1" fill-rule="nonzero"/><path fill="#0f641b" d="M 265.5 322.300781 C 259.480469 324.121094 247.890625 326.515625 236.402344 321.492188 C 217.558594 313.25 206.277344 288.226562 211.378906 260.292969 C 235.660156 259.339844 256.917969 271.160156 264.855469 289.679688 C 270.203125 302.152344 268.007812 314.167969 266.539062 319.8125 C 262.773438 313.417969 257.824219 306.160156 251.355469 298.726562 C 241.371094 287.25 231.074219 279.164062 222.753906 273.640625 C 231.003906 281.144531 239.820312 290.039062 248.675781 300.46875 C 255.066406 307.992188 260.644531 315.339844 265.5 322.300781 Z M 265.5 322.300781 " fill-opacity="1" fill-rule="nonzero"/><g clip-path="url(#2c64abe343)"><path fill="#004aad" d="M 335.683594 139.8125 L 301.875 91.097656 C 300.511719 89.128906 299.789062 86.816406 299.789062 84.410156 L 299.789062 37.5 L 299.875 37.5 C 303.039062 37.5 305.609375 34.898438 305.609375 31.695312 C 305.609375 28.496094 303.039062 25.890625 299.875 25.890625 L 262.625 25.890625 C 259.460938 25.890625 256.890625 28.496094 256.890625 31.695312 C 256.890625 34.898438 259.460938 37.5 262.625 37.5 L 262.710938 37.5 L 262.710938 84.410156 C 262.710938 86.816406 261.988281 89.128906 260.625 91.097656 L 226.785156 139.859375 C 225.570312 141.8125 223.628906 145.882812 224.304688 151.199219 C 224.507812 152.808594 224.9375 154.375 225.582031 155.859375 C 227.089844 159.34375 230.597656 161.597656 234.515625 161.597656 L 327.984375 161.597656 C 331.902344 161.597656 335.410156 159.34375 336.917969 155.859375 C 337.5625 154.378906 337.992188 152.808594 338.199219 151.203125 C 338.871094 145.882812 336.929688 141.8125 335.683594 139.8125 Z M 259.042969 31.695312 C 259.042969 29.683594 260.652344 28.046875 262.625 28.046875 L 299.875 28.046875 C 301.847656 28.046875 303.453125 29.683594 303.453125 31.695312 C 303.453125 33.707031 301.847656 35.347656 299.875 35.347656 L 262.625 35.347656 C 260.652344 35.347656 259.042969 33.707031 259.042969 31.695312 Z M 336.058594 150.929688 C 335.882812 152.335938 335.503906 153.707031 334.941406 155.003906 C 333.777344 157.699219 331.042969 159.445312 327.984375 159.445312 L 234.515625 159.445312 C 231.457031 159.445312 228.726562 157.699219 227.558594 155.003906 C 226.996094 153.707031 226.617188 152.335938 226.441406 150.929688 C 225.828125 146.097656 227.757812 142.375 228.585938 141.042969 L 262.394531 92.324219 C 264.011719 89.996094 264.867188 87.257812 264.867188 84.410156 L 264.867188 75.320312 L 277.757812 75.320312 C 278.355469 75.320312 278.835938 74.839844 278.835938 74.242188 C 278.835938 73.648438 278.355469 73.167969 277.757812 73.167969 L 264.867188 73.167969 L 264.867188 61.140625 L 277.757812 61.140625 C 278.355469 61.140625 278.835938 60.65625 278.835938 60.0625 C 278.835938 59.46875 278.355469 58.984375 277.757812 58.984375 L 264.867188 58.984375 L 264.867188 46.957031 L 277.757812 46.957031 C 278.355469 46.957031 278.835938 46.472656 278.835938 45.878906 C 278.835938 45.285156 278.355469 44.800781 277.757812 44.800781 L 264.867188 44.800781 L 264.867188 37.5 L 297.636719 37.5 L 297.636719 84.410156 C 297.636719 87.257812 298.492188 89.996094 300.109375 92.324219 L 333.886719 140.996094 C 334.742188 142.375 336.671875 146.097656 336.058594 150.929688 Z M 336.058594 150.929688 " fill-opacity="1" fill-rule="nonzero"/></g><path fill="#004aad" d="M 325.488281 153.535156 L 243.375 153.535156 C 239.59375 153.535156 236.34375 150.804688 235.8125 147.175781 L 235.789062 147.003906 C 235.3125 143.253906 236.808594 140.367188 237.445312 139.34375 L 246.105469 126.859375 C 246.445312 126.371094 246.324219 125.703125 245.835938 125.363281 C 245.347656 125.023438 244.675781 125.144531 244.335938 125.632812 L 235.644531 138.160156 C 234.667969 139.730469 233.109375 143 233.648438 147.273438 L 233.679688 147.5 C 234.363281 152.167969 238.53125 155.6875 243.375 155.6875 L 325.488281 155.6875 C 326.082031 155.6875 326.566406 155.207031 326.566406 154.613281 C 326.566406 154.015625 326.082031 153.535156 325.488281 153.535156 Z M 325.488281 153.535156 " fill-opacity="1" fill-rule="nonzero"/><path fill="#004aad" d="M 297.832031 98.5 C 298.039062 98.800781 298.375 98.957031 298.710938 98.957031 C 298.925781 98.957031 299.140625 98.894531 299.332031 98.761719 C 299.816406 98.421875 299.933594 97.746094 299.589844 97.261719 L 296.097656 92.292969 C 294.703125 90.3125 293.96875 87.980469 293.96875 85.542969 L 293.96875 69.515625 C 293.96875 68.921875 293.484375 68.4375 292.890625 68.4375 C 292.292969 68.4375 291.8125 68.921875 291.8125 69.515625 L 291.8125 85.546875 C 291.8125 88.425781 292.6875 91.1875 294.335938 93.535156 Z M 297.832031 98.5 " fill-opacity="1" fill-rule="nonzero"/><path fill="#231815" d="M 93.730469 51.8125 C 85.929688 51.8125 78.582031 54.710938 72.863281 60.085938 C 66.667969 65.914062 63.253906 73.804688 63.253906 82.308594 C 63.253906 89.207031 65.496094 95.710938 69.742188 101.117188 C 75.554688 108.523438 78.628906 117.089844 78.628906 125.886719 L 78.628906 131.253906 C 78.628906 132.152344 79.363281 132.886719 80.265625 132.886719 L 107.277344 132.886719 C 108.09375 132.886719 108.753906 132.226562 108.753906 131.410156 L 108.753906 126.011719 C 108.753906 117.140625 111.855469 108.417969 117.488281 101.445312 C 122.257812 95.542969 124.640625 88.089844 124.191406 80.464844 C 123.304688 65.363281 110.785156 52.804688 95.6875 51.871094 C 95.03125 51.832031 94.378906 51.8125 93.730469 51.8125 Z M 107.277344 137.191406 L 80.265625 137.191406 C 76.992188 137.191406 74.328125 134.527344 74.328125 131.253906 L 74.328125 125.886719 C 74.328125 118.0625 71.570312 110.414062 66.355469 103.773438 C 61.511719 97.601562 58.949219 90.183594 58.949219 82.308594 C 58.949219 72.746094 62.949219 63.503906 69.917969 56.949219 C 76.984375 50.304688 86.230469 46.980469 95.953125 47.578125 C 113.472656 48.660156 127.460938 62.6875 128.488281 80.214844 C 129 88.910156 126.28125 97.410156 120.835938 104.148438 C 115.820312 110.359375 113.058594 118.125 113.058594 126.011719 L 113.058594 131.410156 C 113.058594 134.597656 110.464844 137.191406 107.277344 137.191406 " fill-opacity="1" fill-rule="nonzero"/><path fill="#231815" d="M 108.726562 142.875 L 78.773438 142.875 C 77.585938 142.875 76.621094 141.910156 76.621094 140.722656 C 76.621094 139.535156 77.585938 138.570312 78.773438 138.570312 L 108.726562 138.570312 C 109.914062 138.570312 110.878906 139.535156 110.878906 140.722656 C 110.878906 141.910156 109.914062 142.875 108.726562 142.875 " fill-opacity="1" fill-rule="nonzero"/><path fill="#231815" d="M 108.726562 148.609375 L 78.773438 148.609375 C 77.585938 148.609375 76.621094 147.648438 76.621094 146.460938 C 76.621094 145.273438 77.585938 144.308594 78.773438 144.308594 L 108.726562 144.308594 C 109.914062 144.308594 110.878906 145.273438 110.878906 146.460938 C 110.878906 147.648438 109.914062 148.609375 108.726562 148.609375 " fill-opacity="1" fill-rule="nonzero"/><path fill="#231815" d="M 108.726562 154.347656 L 78.773438 154.347656 C 77.585938 154.347656 76.621094 153.386719 76.621094 152.199219 C 76.621094 151.007812 77.585938 150.046875 78.773438 150.046875 L 108.726562 150.046875 C 109.914062 150.046875 110.878906 151.007812 110.878906 152.199219 C 110.878906 153.386719 109.914062 154.347656 108.726562 154.347656 " fill-opacity="1" fill-rule="nonzero"/><g clip-path="url(#78ff57fe81)"><path fill="#231815" d="M 104.976562 161.636719 L 82.519531 161.636719 L 80.609375 156.097656 L 106.890625 156.097656 L 104.976562 161.636719 " fill-opacity="1" fill-rule="nonzero"/></g><g clip-path="url(#301d8048c7)"><path fill="#231815" d="M 93.75 38.214844 C 92.5625 38.214844 91.597656 37.25 91.597656 36.0625 L 91.597656 13.796875 C 91.597656 12.609375 92.5625 11.648438 93.75 11.648438 C 94.9375 11.648438 95.902344 12.609375 95.902344 13.796875 L 95.902344 36.0625 C 95.902344 37.25 94.9375 38.214844 93.75 38.214844 " fill-opacity="1" fill-rule="nonzero"/></g><path fill="#231815" d="M 128.722656 52.699219 C 128.171875 52.699219 127.621094 52.492188 127.203125 52.070312 C 126.363281 51.230469 126.363281 49.867188 127.203125 49.027344 L 142.945312 33.285156 C 143.785156 32.445312 145.148438 32.445312 145.988281 33.285156 C 146.828125 34.125 146.828125 35.488281 145.988281 36.328125 L 130.246094 52.070312 C 129.824219 52.492188 129.273438 52.699219 128.722656 52.699219 " fill-opacity="1" fill-rule="nonzero"/><g clip-path="url(#fc40e114c4)"><path fill="#231815" d="M 165.472656 87.671875 L 143.210938 87.671875 C 142.023438 87.671875 141.058594 86.710938 141.058594 85.523438 C 141.058594 84.332031 142.023438 83.371094 143.210938 83.371094 L 165.472656 83.371094 C 166.660156 83.371094 167.625 84.332031 167.625 85.523438 C 167.625 86.710938 166.660156 87.671875 165.472656 87.671875 " fill-opacity="1" fill-rule="nonzero"/></g><path fill="#231815" d="M 144.46875 138.390625 C 143.917969 138.390625 143.367188 138.179688 142.945312 137.761719 L 127.203125 122.015625 C 126.363281 121.175781 126.363281 119.816406 127.203125 118.972656 C 128.042969 118.132812 129.40625 118.132812 130.246094 118.972656 L 145.988281 134.71875 C 146.828125 135.558594 146.828125 136.917969 145.988281 137.761719 C 145.566406 138.179688 145.019531 138.390625 144.46875 138.390625 " fill-opacity="1" fill-rule="nonzero"/><path fill="#231815" d="M 43.035156 138.390625 C 42.484375 138.390625 41.933594 138.179688 41.511719 137.761719 C 40.671875 136.917969 40.671875 135.558594 41.511719 134.71875 L 57.253906 118.976562 C 58.097656 118.132812 59.457031 118.132812 60.296875 118.976562 C 61.136719 119.816406 61.136719 121.175781 60.296875 122.015625 L 44.554688 137.761719 C 44.136719 138.179688 43.585938 138.390625 43.035156 138.390625 " fill-opacity="1" fill-rule="nonzero"/><g clip-path="url(#fb96b08170)"><path fill="#231815" d="M 44.289062 87.671875 L 22.027344 87.671875 C 20.839844 87.671875 19.875 86.710938 19.875 85.523438 C 19.875 84.332031 20.839844 83.371094 22.027344 83.371094 L 44.289062 83.371094 C 45.476562 83.371094 46.441406 84.332031 46.441406 85.523438 C 46.441406 86.710938 45.476562 87.671875 44.289062 87.671875 " fill-opacity="1" fill-rule="nonzero"/></g><path fill="#231815" d="M 58.777344 52.699219 C 58.226562 52.699219 57.675781 52.492188 57.253906 52.070312 L 41.511719 36.328125 C 40.671875 35.488281 40.671875 34.125 41.511719 33.285156 C 42.351562 32.445312 43.714844 32.445312 44.554688 33.285156 L 60.296875 49.027344 C 61.136719 49.867188 61.136719 51.230469 60.296875 52.070312 C 59.878906 52.492188 59.328125 52.699219 58.777344 52.699219 " fill-opacity="1" fill-rule="nonzero"/><path fill="#ffffff" d="M 150.808594 170.875 L 224.191406 170.875 C 231.480469 170.875 237.390625 176.78125 237.390625 184.074219 L 237.390625 210.46875 C 237.390625 217.757812 231.480469 223.667969 224.191406 223.667969 L 150.808594 223.667969 C 143.519531 223.667969 137.609375 217.757812 137.609375 210.46875 L 137.609375 184.074219 C 137.609375 176.78125 143.519531 170.875 150.808594 170.875 Z M 150.808594 170.875 " fill-opacity="1" fill-rule="nonzero"/><g fill="#000000" fill-opacity="1"><g transform="translate(152.453872, 211.186759)"><g><path d="M 20.035156 -11.503906 C 18.625 -13.691406 18.253906 -13.914062 14.617188 -14.359375 L 14.617188 -14.839844 C 18.144531 -15.324219 18.699219 -15.507812 20.035156 -17.585938 L 27.347656 -28.308594 L 19.515625 -28.308594 L 11.652344 -16.660156 L 9.460938 -16.660156 L 9.683594 -28.308594 L 2.335938 -28.308594 C 2.410156 -23.5625 2.484375 -18.550781 2.484375 -14.136719 C 2.484375 -9.683594 2.410156 -4.710938 2.335938 0 L 9.683594 0 L 9.460938 -12.355469 L 11.652344 -12.355469 L 19.925781 0 L 28.050781 0 Z M 20.035156 -11.503906 "/></g></g></g><g fill="#000000" fill-opacity="1"><g transform="translate(180.910971, 211.186759)"><g><path d="M 2.335938 0 L 9.648438 0 C 9.5 -4.710938 9.5 -9.425781 9.5 -14.171875 C 9.5 -18.886719 9.5 -23.597656 9.648438 -28.308594 L 2.335938 -28.308594 C 2.484375 -23.5625 2.484375 -18.886719 2.484375 -14.136719 C 2.484375 -9.425781 2.484375 -4.710938 2.335938 0 Z M 2.335938 0 "/></g></g></g><g fill="#000000" fill-opacity="1"><g transform="translate(192.894858, 211.186759)"><g><path d="M 2.335938 0 L 9.648438 0 C 9.648438 -2.152344 9.609375 -7.605469 9.648438 -10.203125 L 14.65625 -10.203125 C 17.773438 -10.203125 18.699219 -9.277344 19.367188 -6.417969 C 19.554688 -4.339844 20.148438 -1.855469 20.519531 0 L 28.347656 0 C 27.828125 -1.445312 26.9375 -5.195312 26.753906 -6.605469 C 26.046875 -10.539062 23.859375 -12.28125 18.21875 -12.429688 L 18.21875 -12.949219 C 24.082031 -13.023438 27.085938 -15.101562 27.085938 -20.667969 C 27.085938 -26.789062 22.929688 -28.308594 15.324219 -28.308594 L 2.335938 -28.308594 C 2.410156 -24.117188 2.558594 -18.402344 2.558594 -14.097656 C 2.558594 -9.832031 2.410156 -4.265625 2.335938 0 Z M 9.574219 -14.839844 L 9.574219 -23.339844 L 14.136719 -23.339844 C 17.734375 -23.339844 19.628906 -22.449219 19.628906 -19.035156 C 19.628906 -15.917969 17.882812 -14.839844 14.136719 -14.839844 Z M 9.574219 -14.839844 "/></g></g></g></svg>
